M48
; DRILL file {KiCad (5.1.5)-3} date 10/11/2020 00:06:57
; FORMAT={-:-/ absolute / inch / decimal}
; #@! TF.CreationDate,2020-11-10T00:06:57+01:00
; #@! TF.GenerationSoftware,Kicad,Pcbnew,(5.1.5)-3
; #@! TF.FileFunction,Plated,1,2,PTH
FMAT,2
INCH
T1C0.0118
T2C0.0157
T3C0.0197
T4C0.0236
T5C0.0276
T6C0.0315
T7C0.0362
T8C0.0394
T9C0.0433
T10C0.0520
T11C0.0866
T12C0.0917
T13C0.0984
T14C0.1260
%
G90
G05
T1
X3.622Y-2.437
X3.622Y-2.7244
X3.6535Y-2.374
X3.752Y-2.2047
X3.8189Y-2.3425
X3.8268Y-1.689
X3.9291Y-2.3307
X4.0118Y-2.2323
X4.0984Y-1.4606
X4.2402Y-1.4252
X4.4173Y-2.3701
X5.3858Y-2.5551
X5.6969Y-1.6457
X5.7087Y-4.4803
X5.7283Y-1.7244
X5.7638Y-1.9724
X5.7795Y-1.6063
X5.8031Y-4.5748
X5.8583Y-2.4488
X5.8622Y-1.8819
X5.8661Y-1.9646
X5.9528Y-5.5748
X5.9843Y-1.9449
X5.9961Y-2.4409
X6.0827Y-2.4409
X6.0827Y-5.5748
X6.1811Y-3.1575
X6.1969Y-2.5945
X6.2087Y-2.4764
X6.2165Y-5.5748
X6.2205Y-1.626
X6.2756Y-2.3504
X6.3228Y-1.626
X6.3425Y-5.2953
X6.3435Y-1.7993
X6.3465Y-3.1102
X6.374Y-2.6732
X6.4213Y-1.626
X6.4685Y-1.5591
X6.5157Y-3.4094
X6.5197Y-1.6417
X6.5394Y-2.1024
X6.5453Y-3.4094
X6.5472Y-1.815
X6.5669Y-3.0315
X6.5709Y-2.4055
X6.5787Y-2.6142
X6.5906Y-2.7638
X6.5906Y-3.0079
X6.6142Y-2.9803
X6.6181Y-1.6417
X6.6339Y-2.8583
X6.6378Y-2.9528
X6.6496Y-2.6181
X6.6614Y-2.8425
X6.6614Y-2.9291
X6.6693Y-1.8228
X6.685Y-2.8189
X6.685Y-2.9055
X6.7087Y-2.7992
X6.7205Y-1.6417
X6.7362Y-5.2953
X6.9094Y-2.2165
X6.9409Y-1.7913
X6.9528Y-2.7598
X6.9567Y-2.9528
X6.9606Y-2.9213
X6.9632Y-2.5677
X6.9647Y-2.5972
X6.9724Y-2.6575
X6.9764Y-2.7402
X6.9803Y-2.1654
X6.995Y-2.4602
X7.0Y-2.7165
X7.0394Y-1.7244
X7.0787Y-2.5039
X7.1142Y-3.2165
X7.1142Y-3.0591
X7.1181Y-5.2953
X7.1496Y-3.1378
X7.185Y-2.9528
X7.2087Y-2.4547
X7.3189Y-2.9488
X7.374Y-5.315
X7.4331Y-2.9449
X7.4409Y-2.7008
X7.4409Y-2.7638
X7.4421Y-2.513
X7.4488Y-2.4646
X7.4488Y-2.5748
X7.5Y-5.315
X7.563Y-2.311
X7.5984Y-5.315
X7.7362Y-2.4961
X7.8228Y-2.252
X7.8701Y-2.8189
X7.8937Y-5.2756
X7.9449Y-3.7598
X7.9961Y-5.2835
X8.0866Y-5.2835
X8.252Y-1.6929
T2
X4.0508Y-2.1836
X5.2195Y-1.1644
X5.2385Y-1.1184
X5.2385Y-1.2103
X5.2844Y-1.0994
X5.2844Y-1.2293
X5.3304Y-1.1184
X5.3304Y-1.2103
X5.3494Y-1.1644
X4.4823Y-1.1634
X4.5013Y-1.1175
X4.5013Y-1.2093
X4.5472Y-1.0984
X4.5472Y-1.2283
X4.5932Y-1.1175
X4.5932Y-1.2093
X4.6122Y-1.1634
T3
X3.0551Y-0.8858
X3.0828Y-0.819
X3.0828Y-0.9526
X3.1496Y-0.7913
X3.1496Y-0.9803
X3.2164Y-0.819
X3.2164Y-0.9526
X3.2441Y-0.8858
X8.5669Y-0.8858
X8.5946Y-0.819
X8.5946Y-0.9526
X8.6614Y-0.7913
X8.6614Y-0.9803
X8.7282Y-0.819
X8.7282Y-0.9526
X8.7559Y-0.8858
X3.0551Y-5.8071
X3.0828Y-5.7403
X3.0828Y-5.8739
X3.1496Y-5.7126
X3.1496Y-5.9016
X3.2164Y-5.7403
X3.2164Y-5.8739
X3.2441Y-5.8071
X6.5118Y-2.4646
X6.5118Y-2.5394
X8.5669Y-5.8071
X8.5946Y-5.7403
X8.5946Y-5.8739
X8.6614Y-5.7126
X8.6614Y-5.9016
X8.7282Y-5.7403
X8.7282Y-5.8739
X8.7559Y-5.8071
T4
X4.1693Y-2.1732
X4.2992Y-1.9055
X4.4291Y-2.4724
X4.5984Y-3.5551
X4.6102Y-1.5591
X4.6378Y-2.0118
X4.6772Y-1.4606
X4.9724Y-2.5669
X5.1575Y-2.4055
X5.4961Y-2.6614
X6.9843Y-2.4961
T5
X8.3752Y-1.2646
X8.3752Y-1.3146
X8.3752Y-1.3646
X8.3752Y-1.4146
X8.3752Y-1.4646
X8.4252Y-1.2646
X8.4252Y-1.3146
X8.4252Y-1.3646
X8.4252Y-1.4146
X8.4252Y-1.4646
T6
X4.0803Y-2.2453
X4.1803Y-2.2453
X4.2803Y-2.2453
T7
X5.7766Y-1.4321
X5.7766Y-1.5108
X5.875Y-1.4321
X5.875Y-1.5108
T8
X4.814Y-1.7323
X4.914Y-1.7323
X5.014Y-1.7323
X3.4906Y-0.9291
X3.4906Y-1.0291
X3.5906Y-0.9291
X3.5906Y-1.0291
X3.6906Y-0.9291
X3.6906Y-1.0291
X3.7906Y-0.9291
X3.7906Y-1.0291
X6.2197Y-1.1693
X6.3197Y-1.1693
X6.4197Y-1.1693
X6.5197Y-1.1693
X6.6197Y-1.1693
X6.7197Y-1.1693
X6.8583Y-1.1677
X6.8583Y-1.2677
X6.9583Y-1.1677
X6.9583Y-1.2677
X7.0583Y-1.1677
X7.0583Y-1.2677
X7.1583Y-1.1677
X7.1583Y-1.2677
X7.2583Y-1.1677
X7.2583Y-1.2677
X7.3583Y-1.1677
X7.3583Y-1.2677
X7.4583Y-1.1677
X7.4583Y-1.2677
X7.5583Y-1.1677
X7.5583Y-1.2677
X7.6583Y-1.1677
X7.6583Y-1.2677
X7.7583Y-1.1677
X7.7583Y-1.2677
X7.8583Y-1.1677
X7.8583Y-1.2677
X7.9583Y-1.1677
X7.9583Y-1.2677
X6.0567Y-4.4173
X6.0567Y-4.5173
X6.1567Y-4.4173
X6.1567Y-4.5173
X6.2567Y-4.4173
X6.2567Y-4.5173
X6.3567Y-4.4173
X6.3567Y-4.5173
X6.4567Y-4.4173
X6.4567Y-4.5173
X6.5567Y-4.4173
X6.5567Y-4.5173
X6.6567Y-4.4173
X6.6567Y-4.5173
X6.7567Y-4.4173
X6.7567Y-4.5173
X6.8567Y-4.4173
X6.8567Y-4.5173
X6.9567Y-4.4173
X6.9567Y-4.5173
X7.0567Y-4.4173
X7.0567Y-4.5173
X7.1567Y-4.4173
X7.1567Y-4.5173
X7.2567Y-4.4173
X7.2567Y-4.5173
X7.3567Y-4.4173
X7.3567Y-4.5173
X7.4567Y-4.4173
X7.4567Y-4.5173
X7.5567Y-4.4173
X7.5567Y-4.5173
X7.6567Y-4.4173
X7.6567Y-4.5173
X7.7567Y-4.4173
X7.7567Y-4.5173
X7.8567Y-4.4173
X7.8567Y-4.5173
X7.9567Y-4.4173
X7.9567Y-4.5173
X3.4921Y-1.148
X3.4921Y-1.248
X3.5921Y-1.148
X3.5921Y-1.248
X3.6921Y-1.148
X3.6921Y-1.248
X3.7921Y-1.148
X3.7921Y-1.248
X7.3976Y-5.0984
X7.4976Y-5.0984
X7.5976Y-5.0984
X4.2091Y-5.5354
X4.3091Y-5.5354
X4.4091Y-5.5354
X4.5091Y-5.5354
X4.6091Y-5.5354
X4.7091Y-5.5354
X4.8091Y-5.5354
X4.9091Y-5.5354
X3.8878Y-2.4713
X3.8878Y-2.5713
X3.9878Y-2.4713
X3.9878Y-2.5713
X4.0878Y-2.4713
X4.0878Y-2.5713
X4.1878Y-2.4713
X4.1878Y-2.5713
X6.0315Y-5.0984
X6.1315Y-5.0984
X6.2315Y-5.0984
X8.3504Y-1.8583
X8.3504Y-1.9583
X8.3504Y-2.0583
X8.3504Y-2.1583
X8.3504Y-2.2583
X8.3504Y-2.3583
X8.3504Y-2.4583
X8.3504Y-2.5583
X8.3504Y-2.6583
X8.3504Y-2.7583
X8.3504Y-2.8583
X8.3504Y-2.9583
X8.3504Y-3.0583
X8.3504Y-3.1583
X8.3504Y-3.2583
X8.3504Y-3.3583
X8.3504Y-3.4583
X8.3504Y-3.5583
X8.3504Y-3.6583
X8.3504Y-3.7583
X8.4504Y-1.8583
X8.4504Y-1.9583
X8.4504Y-2.0583
X8.4504Y-2.1583
X8.4504Y-2.2583
X8.4504Y-2.3583
X8.4504Y-2.4583
X8.4504Y-2.5583
X8.4504Y-2.6583
X8.4504Y-2.7583
X8.4504Y-2.8583
X8.4504Y-2.9583
X8.4504Y-3.0583
X8.4504Y-3.1583
X8.4504Y-3.2583
X8.4504Y-3.3583
X8.4504Y-3.4583
X8.4504Y-3.5583
X8.4504Y-3.6583
X8.4504Y-3.7583
X5.6508Y-2.2358
X5.7508Y-2.2358
X4.2213Y-5.8071
X4.3213Y-5.8071
X4.4213Y-5.8071
X4.5213Y-5.8071
X4.6213Y-5.8071
X4.7213Y-5.8071
X4.8213Y-5.8071
X4.9213Y-5.8071
X3.7508Y-1.9598
X3.8508Y-1.9598
X7.748Y-5.563
X7.748Y-5.6614
X7.748Y-5.7598
X8.3189Y-5.563
X8.3189Y-5.7598
X3.4236Y-2.0283
X3.4236Y-2.1283
X3.4236Y-2.2283
X3.5236Y-2.0283
X3.5236Y-2.1283
X3.5236Y-2.2283
X6.8071Y-2.0709
X6.8071Y-2.1709
X6.8071Y-2.2709
X3.4921Y-1.3685
X3.4921Y-1.4685
X3.5921Y-1.3685
X3.5921Y-1.4685
X3.6921Y-1.3685
X3.6921Y-1.4685
X3.7921Y-1.3685
X3.7921Y-1.4685
X7.9378Y-5.0512
X8.0378Y-5.0512
X8.1378Y-5.0512
T9
X5.9882Y-3.6654
X5.9882Y-3.9213
X6.1654Y-3.6654
X6.1654Y-3.9213
X6.3457Y-5.5315
X6.3457Y-5.7874
X6.5228Y-5.5315
X6.5228Y-5.7874
X7.1142Y-5.5315
X7.1142Y-5.7874
X7.2913Y-5.5315
X7.2913Y-5.7874
X6.7299Y-5.5315
X6.7299Y-5.7874
X6.9071Y-5.5315
X6.9071Y-5.7874
T10
X4.814Y-1.1575
X5.0108Y-1.1575
T11
X5.2844Y-1.1644
X8.0433Y-5.4409
X8.0433Y-5.8819
X4.5472Y-1.1634
T12
X5.5888Y-1.3254
X6.0628Y-1.3254
T13
X3.378Y-3.0157
X3.378Y-5.3386
X5.7402Y-3.0157
X5.7402Y-5.3386
T14
X8.6614Y-0.8858
X8.6614Y-5.8071
X3.1496Y-0.8858
X3.1496Y-5.8071
T0
M30
